<svg xmlns="http://www.w3.org/2000/svg" width="51" height="15">
  <g fill="none" fill-rule="nonzero">
    <path fill="#D72F5A"
          d="M7.025 8.936a.956.956 0 0 1-.612-.238L2.978 5.676a1.066 1.066 0 0 1-.12-1.45.946.946 0 0 1 1.379-.125l3.417 3.022c.31.276.426.725.29 1.128a.984.984 0 0 1-.9.685h-.02Z"/>
    <path fill="#E88733"
          d="M1.987 9a.955.955 0 0 1-.704-.308 1.058 1.058 0 0 1-.28-.746V1.035c0-.568.438-1.029.978-1.029s.978.46.978 1.029v6.91c.007.277-.092.544-.275.742A.956.956 0 0 1 1.987 9Z"/>
    <path fill="#70B0BE"
          d="M6.218 3.986c-.54 0-.978-.46-.978-1.029-.004-.458-.332-.841-.765-.893H1.981C1.44 2.064 1 1.602 1 1.032 1 .462 1.44 0 1.981 0H4.61c1.46.133 2.582 1.416 2.586 2.957 0 .568-.438 1.029-.978 1.029Z"/>
    <path fill="#00ADA8"
          d="M1.981 5.92C1.44 5.92 1 5.46 1 4.89c0-.57.44-1.032.981-1.032H4.47c.438-.05.77-.437.77-.9 0-.367.187-.707.49-.89a.937.937 0 0 1 .978 0c.302.183.489.523.489.89-.005 1.55-1.14 2.837-2.61 2.957l-2.605.007Z"/>
    <path fill="#333"
          d="M10.614 5.002h3.609V6.33h-3.609c.034.41.166.7.397.87.23.171.605.256 1.127.256h2.085V8.79h-2.28c-.494 0-.896-.045-1.208-.135a2.638 2.638 0 0 1-.877-.442C9.1 7.625 8.72 6.751 8.72 5.59c0-.751.2-1.408.6-1.97.273-.385.601-.659.985-.821.385-.161.889-.242 1.512-.242h2.406v1.33h-2.28c-.468 0-.796.08-.985.238-.188.157-.303.45-.344.877ZM17.735 5.002h2.1c0-.436-.087-.73-.261-.883-.175-.155-.523-.232-1.044-.232h-2.892v-1.33h2.892c.521 0 .88.01 1.076.03.196.021.396.063.6.123.947.36 1.395 1.217 1.344 2.574V8.79h-3.609c-.649 0-1.097-.02-1.344-.059a1.665 1.665 0 0 1-.653-.235c-.504-.341-.756-.858-.756-1.55 0-.418.101-.79.303-1.118.2-.33.467-.554.8-.673.29-.102.772-.153 1.444-.153Zm2.1 2.455V6.331h-2.264c-.196 0-.352.052-.468.156a.532.532 0 0 0-.173.42c0 .197.07.338.211.424.142.084.383.126.724.126h1.97ZM25.82 2.557h2.341v1.33h-2.047c-.692 0-1.17.154-1.435.462-.255.29-.382.733-.382 1.33 0 .666.208 1.153.626 1.46.17.12.356.203.556.248.202.047.481.07.838.07h1.844V8.79h-2.34c-.632 0-1.131-.064-1.498-.191a2.32 2.32 0 0 1-.974-.668c-.537-.596-.805-1.355-.805-2.276 0-1.11.32-1.939.958-2.486.257-.221.564-.38.921-.473.359-.092.825-.139 1.397-.139ZM29.308 2.557h1.088V.252h1.715v2.305h1.585v1.33h-1.585v2.265c0 .529.047.862.141 1 .145.204.401.305.768.305h.676V8.79h-1.24c-.742 0-1.27-.18-1.586-.538-.316-.36-.474-.96-.474-1.803V3.887h-1.088v-1.33ZM34.602 8.79V2.557h1.714V8.79h-1.714Zm1.714-6.874h-1.714V.252h1.714v1.664ZM40.538 2.466c1.153 0 2.002.334 2.547 1 .504.606.756 1.37.756 2.291 0 .973-.316 1.75-.947 2.33-.58.527-1.375.791-2.383.791-1.04 0-1.856-.298-2.444-.894-.545-.537-.818-1.323-.818-2.356 0-.87.26-1.596.78-2.176.58-.65 1.417-.978 2.509-.986Zm.011 1.306c-1.03 0-1.547.64-1.547 1.92 0 .52.086.917.256 1.192.283.46.718.691 1.306.691 1.016 0 1.524-.636 1.524-1.909 0-1.245-.513-1.876-1.539-1.894ZM44.896 8.79V2.557h3.303c.494 0 .871.037 1.132.11.26.072.497.201.709.388.435.402.653 1.033.653 1.894v3.84h-1.715V4.758c0-.307-.068-.529-.203-.664-.137-.137-.364-.206-.68-.206H46.61V8.79h-1.714Z"/>
    <g fill="#333">
      <path
        d="M.778 12.622h18.438v1H.778zM30.784 12.622h18.438v1H30.784zM21.683 12.9h-1.24v1.145h-.345v-2.523h1.75v.29h-1.406v.786h1.241v.303Zm2.51-.11c-.036-.662-.33-1.01-.883-1.048-.56.028-.855.377-.882 1.047.027.653.321.993.882 1.02.553-.035.847-.375.882-1.02Zm.346 0c-.057.836-.466 1.269-1.23 1.296-.77-.027-1.183-.46-1.24-1.297.047-.872.46-1.317 1.24-1.335.764.027 1.173.472 1.23 1.335Zm1.612.167h-.826v1.088h-.344v-2.523h1.17c.56 0 .841.225.841.676 0 .274-.12.476-.359.606.202.055.303.216.303.482l.03.456c-.01.128.031.21.123.247v.056h-.43a3.716 3.716 0 0 1-.052-.635c.008-.302-.144-.453-.456-.453Zm.027-1.159h-.853v.868h.8c.339 0 .508-.147.508-.442 0-.284-.152-.426-.455-.426Zm3.723-.276v2.523h-.332v-2.123l-.715 2.123h-.344l-.706-2.123h-.012c0 .101.004.253.012.455v1.668h-.344v-2.523h.497l.73 2.138.717-2.138h.497Z"/>
    </g>
  </g>
</svg>
