<svg xmlns="http://www.w3.org/2000/svg" width="7" height="9">
  <g fill="none" fill-rule="nonzero">
    <path fill="#D72F5A"
          d="M6.025 8.936a.956.956 0 0 1-.612-.238L1.978 5.676a1.066 1.066 0 0 1-.12-1.45.946.946 0 0 1 1.379-.125l3.417 3.022c.31.276.426.725.29 1.128a.984.984 0 0 1-.9.685h-.02.001Z"/>
    <path fill="#E88733"
          d="M.987 9a.955.955 0 0 1-.704-.308 1.058 1.058 0 0 1-.28-.746V1.035C.003.467.441.006.981.006s.978.46.978 1.029v6.91c.007.277-.092.544-.275.742A.956.956 0 0 1 .987 9Z"/>
    <path fill="#70B0BE"
          d="M5.218 3.986c-.54 0-.978-.46-.978-1.029-.004-.458-.332-.841-.765-.893H.981C.44 2.064 0 1.602 0 1.032 0 .462.44 0 .981 0H3.61c1.46.133 2.582 1.416 2.586 2.957 0 .568-.438 1.029-.978 1.029Z"/>
    <path fill="#00ADA8"
          d="M.981 5.92C.44 5.92 0 5.46 0 4.89c0-.57.44-1.032.981-1.032H3.47c.438-.05.77-.437.77-.9 0-.367.187-.707.49-.89a.937.937 0 0 1 .978 0c.302.183.489.523.489.89-.005 1.55-1.14 2.837-2.61 2.957l-2.605.007-.001-.002Z"/>
  </g>
</svg>
